<svg width="32" height="33" viewBox="0 0 32 33" fill="none" xmlns="http://www.w3.org/2000/svg">
<path d="M28.1665 12.4787C27.9862 12.4787 27.8402 12.3322 27.8402 12.1513V11.3171L27.1199 10.8997C26.9641 10.8096 26.9102 10.6091 27.0008 10.4527C27.0905 10.2964 27.2904 10.2423 27.4462 10.3332L28.3296 10.8448C28.4308 10.9029 28.4928 11.0118 28.4928 11.128V12.1513C28.4928 12.3322 28.3467 12.4787 28.1665 12.4787Z" fill="white"/>
<path d="M25.7723 10.0686C25.7168 10.0686 25.6605 10.0546 25.6092 10.0243L24.0984 9.1493C23.9426 9.05926 23.8888 8.85871 23.9793 8.70236C24.069 8.54601 24.2689 8.49199 24.4247 8.58285L25.9354 9.4579C26.0913 9.54794 26.1451 9.74849 26.0545 9.90484C25.9942 10.0096 25.8849 10.0686 25.7715 10.0686H25.7723ZM22.7508 8.31763C22.6953 8.31763 22.6391 8.30372 22.5877 8.27343L21.0769 7.39838C20.9211 7.30834 20.8673 7.10779 20.9578 6.95144C21.0476 6.7951 21.2474 6.74107 21.4032 6.83193L22.914 7.70698C23.0698 7.79702 23.1236 7.99757 23.0331 8.15392C22.9727 8.2587 22.8634 8.31763 22.75 8.31763H22.7508ZM19.7293 6.56672C19.6738 6.56672 19.6176 6.5528 19.5662 6.52251L18.0554 5.64746C17.8996 5.55742 17.8458 5.35687 17.9363 5.20052C18.0261 5.04418 18.2259 4.99015 18.3817 5.08101L19.8925 5.95606C20.0483 6.04611 20.1021 6.24665 20.0116 6.403C19.9512 6.50778 19.8419 6.56672 19.7285 6.56672H19.7293Z" fill="white"/>
<path d="M5.87662 10.0686C5.76405 10.0686 5.65392 10.0096 5.59356 9.90484C5.50383 9.74849 5.55685 9.54794 5.71266 9.4579L7.2234 8.58285C7.37921 8.49199 7.57906 8.54601 7.66879 8.70236C7.75853 8.85871 7.7055 9.05926 7.5497 9.1493L6.03895 10.0243C5.98756 10.0538 5.93127 10.0686 5.8758 10.0686H5.87662ZM8.89811 8.31763C8.78554 8.31763 8.67541 8.2587 8.61505 8.15392C8.52532 7.99757 8.57834 7.79702 8.73415 7.70698L10.2449 6.83193C10.4007 6.74107 10.6006 6.7951 10.6903 6.95144C10.78 7.10779 10.727 7.30834 10.5712 7.39838L9.06044 8.27343C9.00905 8.3029 8.95276 8.31763 8.89729 8.31763H8.89811ZM11.9196 6.56672C11.807 6.56672 11.6969 6.50778 11.6365 6.403C11.5468 6.24665 11.5998 6.04611 11.7556 5.95606L13.2664 5.08101C13.4222 4.99015 13.622 5.04418 13.7118 5.20052C13.8015 5.35687 13.7485 5.55742 13.5927 5.64746L12.0819 6.52251C12.0305 6.55198 11.9743 6.56672 11.9188 6.56672H11.9196Z" fill="white"/>
<path d="M3.48242 12.4787C3.30214 12.4787 3.15613 12.3322 3.15613 12.1513V11.128C3.15613 11.011 3.21812 10.9029 3.31928 10.8448L4.20272 10.3332C4.35852 10.2423 4.55838 10.2964 4.64811 10.4527C4.73784 10.6091 4.68482 10.8096 4.52901 10.8997L3.80872 11.3171V12.1513C3.80872 12.3322 3.6627 12.4787 3.48242 12.4787Z" fill="white"/>
<path d="M3.48242 22.983C3.30214 22.983 3.15613 22.8365 3.15613 22.6556V20.9047C3.15613 20.7238 3.30214 20.5772 3.48242 20.5772C3.6627 20.5772 3.80872 20.7238 3.80872 20.9047V22.6556C3.80872 22.8365 3.6627 22.983 3.48242 22.983ZM3.48242 19.482C3.30214 19.482 3.15613 19.3355 3.15613 19.1546V17.4036C3.15613 17.2227 3.30214 17.0762 3.48242 17.0762C3.6627 17.0762 3.80872 17.2227 3.80872 17.4036V19.1546C3.80872 19.3355 3.6627 19.482 3.48242 19.482ZM3.48242 15.981C3.30214 15.981 3.15613 15.8344 3.15613 15.6535V13.9026C3.15613 13.7217 3.30214 13.5752 3.48242 13.5752C3.6627 13.5752 3.80872 13.7217 3.80872 13.9026V15.6535C3.80872 15.8344 3.6627 15.981 3.48242 15.981Z" fill="white"/>
<path d="M13.4303 31.52C13.3748 31.52 13.3185 31.5061 13.2671 31.4758L11.7564 30.6007C11.6006 30.5107 11.5467 30.3101 11.6373 30.1538C11.727 29.9974 11.9269 29.9434 12.0827 30.0343L13.5934 30.9093C13.7492 30.9994 13.8031 31.1999 13.7125 31.3563C13.6521 31.461 13.5428 31.52 13.4294 31.52H13.4303ZM10.4088 29.769C10.3533 29.769 10.297 29.7551 10.2456 29.7248L8.73488 28.8498C8.57907 28.7598 8.52523 28.5592 8.61578 28.4029C8.70551 28.2465 8.90536 28.1925 9.06117 28.2833L10.5719 29.1584C10.7277 29.2484 10.7816 29.449 10.691 29.6053C10.6306 29.7101 10.5213 29.769 10.408 29.769H10.4088ZM7.38728 28.0181C7.33181 28.0181 7.27552 28.0042 7.22413 27.9739L5.71339 27.0989C5.55758 27.0088 5.50374 26.8083 5.59429 26.6519C5.68402 26.4956 5.88387 26.4416 6.03968 26.5324L7.55043 27.4075C7.70623 27.4975 7.76007 27.6981 7.66952 27.8544C7.60916 27.9592 7.49985 28.0181 7.38646 28.0181H7.38728Z" fill="white"/>
<path d="M15.8244 32.9074C15.7681 32.9074 15.7119 32.8926 15.6613 32.8632L14.7778 32.3516C14.622 32.2615 14.5682 32.061 14.6587 31.9046C14.7485 31.7483 14.9483 31.6943 15.1041 31.7851L15.8244 32.2018L16.5447 31.7851C16.7005 31.6943 16.9004 31.7483 16.9901 31.9046C17.0798 32.061 17.0268 32.2615 16.871 32.3516L15.9876 32.8632C15.937 32.8926 15.8807 32.9074 15.8244 32.9074Z" fill="white"/>
<path d="M18.2188 31.52C18.1062 31.52 17.9961 31.461 17.9357 31.3563C17.846 31.1999 17.899 30.9994 18.0548 30.9093L19.5656 30.0343C19.7214 29.9434 19.9212 29.9974 20.011 30.1538C20.1007 30.3101 20.0477 30.5107 19.8919 30.6007L18.3811 31.4758C18.3297 31.5052 18.2734 31.52 18.218 31.52H18.2188ZM21.2403 29.769C21.1277 29.769 21.0176 29.7101 20.9572 29.6053C20.8675 29.449 20.9205 29.2484 21.0763 29.1584L22.5871 28.2833C22.7429 28.1925 22.9427 28.2465 23.0324 28.4029C23.1222 28.5592 23.0692 28.7598 22.9134 28.8498L21.4026 29.7248C21.3512 29.7543 21.2949 29.769 21.2395 29.769H21.2403ZM24.2618 28.0181C24.1492 28.0181 24.0391 27.9592 23.9787 27.8544C23.889 27.6981 23.942 27.4975 24.0978 27.4075L25.6085 26.5324C25.7643 26.4416 25.9642 26.4956 26.0539 26.6519C26.1437 26.8083 26.0906 27.0088 25.9348 27.0989L24.4241 27.9739C24.3727 28.0034 24.3164 28.0181 24.2609 28.0181H24.2618Z" fill="white"/>
<path d="M28.1665 22.983C27.9862 22.983 27.8402 22.8365 27.8402 22.6556V20.9047C27.8402 20.7238 27.9862 20.5772 28.1665 20.5772C28.3468 20.5772 28.4928 20.7238 28.4928 20.9047V22.6556C28.4928 22.8365 28.3468 22.983 28.1665 22.983ZM28.1665 19.482C27.9862 19.482 27.8402 19.3355 27.8402 19.1546V17.4036C27.8402 17.2227 27.9862 17.0762 28.1665 17.0762C28.3468 17.0762 28.4928 17.2227 28.4928 17.4036V19.1546C28.4928 19.3355 28.3468 19.482 28.1665 19.482ZM28.1665 15.981C27.9862 15.981 27.8402 15.8344 27.8402 15.6535V13.9026C27.8402 13.7217 27.9862 13.5752 28.1665 13.5752C28.3468 13.5752 28.4928 13.7217 28.4928 13.9026V15.6535C28.4928 15.8344 28.3468 15.981 28.1665 15.981Z" fill="white"/>
<path d="M31.3022 19.0384C31.122 19.0384 30.976 19.1849 30.976 19.3658V26.805L19.654 19.8796C19.4982 19.7896 19.2983 19.8428 19.2086 19.9999C19.1189 20.1563 19.1719 20.3568 19.3285 20.4469L30.6798 27.3886L24.2151 31.1459C24.0593 31.2359 24.0055 31.4365 24.096 31.5928C24.1564 31.6976 24.2657 31.7565 24.3791 31.7565C24.4346 31.7565 24.4908 31.7426 24.5422 31.7123L31.467 27.6874C31.5682 27.6293 31.6302 27.5204 31.6302 27.4042V19.365C31.6302 19.1841 31.4842 19.0376 31.3039 19.0376L31.3022 19.0384Z" fill="#00F4AB"/>
<path d="M22.6269 4.6683C22.6783 4.69776 22.7346 4.7125 22.7901 4.7125C22.9026 4.7125 23.0128 4.65356 23.0731 4.54879C23.1628 4.39244 23.1098 4.19189 22.954 4.10185L15.9876 0.0433841C15.9778 0.0376541 15.968 0.0327427 15.9574 0.0286499C15.955 0.0278313 15.9525 0.0261942 15.9501 0.0245571C15.933 0.0171899 15.915 0.0122785 15.8971 0.00818569C15.8922 0.00736712 15.8873 0.00654855 15.8824 0.00491141C15.8441 -0.00163714 15.8049 -0.00163714 15.7666 0.00491141C15.7617 0.00572998 15.7568 0.00654855 15.7519 0.00818569C15.7339 0.0122785 15.716 0.0171899 15.6989 0.0245571C15.6964 0.0253756 15.694 0.0270128 15.6915 0.0286499C15.6817 0.0335613 15.6711 0.0376541 15.6613 0.0433841L8.68677 4.10103C8.53097 4.19107 8.47713 4.39162 8.56768 4.54797C8.65741 4.70431 8.85726 4.75834 9.01307 4.66748L15.4982 0.894695V14.6961C15.4982 14.877 15.6442 15.0235 15.8245 15.0235C16.0048 15.0235 16.1508 14.877 16.1508 14.6961V0.894695L22.6269 4.66748V4.6683Z" fill="#00F6FF"/>
<path d="M12.4573 19.9702L0.65259 26.869V19.3963C0.65259 19.2154 0.506573 19.0688 0.326295 19.0688C0.146017 19.0688 0 19.2154 0 19.3963V27.4354C0 27.4469 0.000815737 27.4575 0.00244721 27.469C0.00244721 27.4715 0.00244721 27.4747 0.00244721 27.4772C0.00489442 27.496 0.00897311 27.514 0.0146833 27.5312C0.0163147 27.5361 0.0179462 27.5402 0.0195777 27.5451C0.0261036 27.5631 0.0334452 27.5811 0.0432341 27.5975C0.0505757 27.6106 0.0587331 27.6221 0.0668904 27.6335C0.0717849 27.6401 0.0766793 27.645 0.0823894 27.6507C0.0864681 27.6556 0.0905468 27.6605 0.0954412 27.6655C0.101967 27.672 0.109309 27.6786 0.117466 27.6843C0.120729 27.6876 0.123992 27.6908 0.128071 27.6933C0.137044 27.6998 0.146017 27.7064 0.155806 27.7121C0.158253 27.7137 0.1607 27.7154 0.163147 27.717H0.164779C0.164779 27.717 0.165595 27.7187 0.16641 27.7187L7.12873 31.7411C7.18012 31.7706 7.2364 31.7853 7.29187 31.7853C7.40444 31.7853 7.51457 31.7264 7.57493 31.6216C7.66466 31.4652 7.61164 31.2647 7.45584 31.1747L0.981332 27.4338L12.7852 20.535C12.941 20.445 12.9949 20.2445 12.9051 20.0881C12.8154 19.9318 12.6155 19.8777 12.4597 19.9678L12.4573 19.9702Z" fill="#B896FF"/>
</svg>
