<svg width="53" height="53" viewBox="0 0 53 53" fill="none" xmlns="http://www.w3.org/2000/svg">
<path fill-rule="evenodd" clip-rule="evenodd" d="M44.2501 6.00684C42.1198 3.88542 38.6672 3.88672 36.5385 6.00975L20.0744 22.433C18.7576 23.7463 17.9834 25.5043 17.905 27.3593L17.6707 32.9081C17.5639 35.4348 19.5904 37.5413 22.128 37.5414L27.5873 37.5416C29.5916 37.5417 31.5111 36.7354 32.9106 35.3055L49.2422 18.5677C51.3271 16.4375 51.3052 13.0325 49.193 10.9292L44.2501 6.00684ZM38.6424 8.10494C39.61 7.13993 41.1794 7.13934 42.1477 8.10362L47.0907 13.0259C48.0507 13.982 48.0607 15.5297 47.113 16.498L43.833 19.8493L35.3434 11.3951L38.6424 8.10494ZM33.2411 13.4919L22.1783 24.5282C21.3883 25.3161 20.9237 26.371 20.8767 27.484L20.6424 33.0328C20.6068 33.875 21.2823 34.5772 22.1281 34.5772L27.5874 34.5775C28.79 34.5775 29.9417 34.0937 30.7814 33.2358L41.7561 21.9714L33.2411 13.4919Z" fill="#00FFF0" stroke="black" stroke-width="1.5" stroke-linecap="round" stroke-linejoin="round"/>
<path d="M46.375 28.7083V37.5416C46.375 43.6398 41.4315 48.5833 35.3333 48.5833H17.6667C11.5685 48.5833 6.625 43.6398 6.625 37.5416V19.875C6.625 13.7768 11.5685 8.83331 17.6667 8.83331H26.5" stroke="#00FFF0" stroke-width="1.5" stroke-linecap="round"/>
</svg>
