<svg width="62" height="58" viewBox="0 0 62 58" fill="none" xmlns="http://www.w3.org/2000/svg">
<g clip-path="url(#clip0_176_1784)">
<path d="M23.3228 7.99246C23.3188 3.95564 26.5466 0.736206 30.597 0.736206C34.6775 0.736206 37.8933 3.91157 37.9074 7.9564C37.9235 12.0573 34.7077 15.2647 30.5809 15.2647C26.5305 15.2647 23.3248 12.0553 23.3208 7.99447L23.3228 7.99246ZM30.6091 13.7662C33.7504 13.7822 36.389 11.1798 36.4031 8.05457C36.4171 4.84715 33.855 2.2748 30.6131 2.23674C27.5522 2.20068 24.8653 4.81309 24.8311 7.85623C24.7929 11.1638 27.3229 13.7502 30.6091 13.7662Z" fill="#00F4AB"/>
<path d="M18.0859 25.1554C18.1221 21.6675 19.7853 19.2314 22.8964 17.7008C26.1484 16.1021 26.4259 16.1202 29.1329 18.414C30.1559 19.2808 31.1748 19.2628 32.1898 18.36C32.3145 18.2498 32.4673 18.1576 32.5598 18.0234C33.7725 16.3125 35.2788 16.4107 37.0587 17.0898C41.2941 18.7045 43.2629 21.4892 43.1463 25.9347C43.1302 26.5217 43.088 27.0266 42.3137 26.9945C41.5414 26.9645 41.6098 26.3815 41.648 25.9007C41.9879 21.4051 38.8244 19.1533 35.679 18.2438C35.1481 18.0895 34.768 18.1556 34.3256 18.5483C33.4507 19.3236 32.5618 20.0789 31.7192 20.8942C30.8423 21.7437 30.5065 21.7316 29.5934 20.9383C28.6864 20.149 27.7975 19.3396 26.9026 18.5362C26.627 18.2898 26.3736 18.0234 25.9392 18.1496C23.1539 18.9489 20.7908 20.2411 19.8315 23.2262C19.56 24.0736 19.6103 24.9391 19.5882 25.8045C19.5741 26.3535 19.7169 27.0266 18.8119 27.0026C17.9049 26.9785 18.1221 26.2893 18.0859 25.7564C18.0718 25.5581 18.0839 25.3558 18.0839 25.1554H18.0859Z" fill="#00F4AB"/>
<path d="M14.1964 31.5242C14.2004 34.5292 11.954 36.8131 8.95744 36.8492C6.08357 36.8852 3.64007 34.4651 3.62398 31.5682C3.60789 28.7134 6.10167 26.2092 8.9313 26.2372C11.9278 26.2673 14.1924 28.5391 14.1964 31.5242ZM12.6981 31.4961C12.68 29.3545 11.0872 27.8159 8.89711 27.8259C6.83572 27.8339 5.14438 29.5328 5.14438 31.5963C5.14438 33.5295 6.93426 35.3126 8.88906 35.3286C10.9947 35.3446 12.7142 33.6137 12.6981 31.4961Z" fill="#00F4AB"/>
<path d="M47.0016 31.6744C46.9453 28.3548 49.4994 26.3394 52.1601 26.2613C55.1385 26.1731 57.5941 28.6073 57.5961 31.5342C57.5961 34.4471 55.1908 36.8612 52.2988 36.8492C49.3767 36.8372 47.0137 34.5273 47.0016 31.6744ZM52.3169 27.8259C50.1771 27.8039 48.5501 29.3826 48.532 31.5021C48.5139 33.5616 50.2093 35.3306 52.2164 35.3486C54.2637 35.3667 56.0476 33.6157 56.0878 31.5482C56.126 29.5188 54.4326 27.848 52.319 27.8259H52.3169Z" fill="#00F4AB"/>
<path d="M35.8983 43.5525C35.8983 46.4694 33.5111 48.8334 30.5809 48.8234C27.6588 48.8134 25.3178 46.4374 25.3319 43.4984C25.346 40.5715 27.7292 38.2095 30.6453 38.2335C33.6137 38.2596 35.9003 40.5735 35.8983 43.5505V43.5525ZM30.6071 47.2668C32.771 47.2688 34.406 45.626 34.3859 43.4644C34.3678 41.4229 32.6242 39.71 30.5849 39.7361C28.6161 39.7621 26.8624 41.499 26.8382 43.4483C26.8121 45.618 28.4351 47.2648 30.605 47.2668H30.6071Z" fill="#00F4AB"/>
<path d="M0 44.3418C0.0663666 40.5514 2.89399 38.7284 6.00517 38.2055C6.42549 38.1354 6.79755 38.3077 7.10123 38.6002C7.31843 38.8085 7.51753 39.0349 7.7307 39.2452C8.87502 40.3691 8.97156 40.4573 10.0696 39.2753C11.1858 38.0753 12.2919 38.1213 13.6695 38.6603C16.3604 39.712 17.8285 41.5872 17.919 44.4801C17.9351 44.9789 18.106 45.614 17.2714 45.6921C16.4368 45.7703 16.3202 45.2253 16.3503 44.6083C16.469 42.1842 15.0592 40.886 13.0139 40.0326C12.3744 39.7661 11.8253 39.7321 11.2964 40.309C10.8258 40.8239 10.2647 41.2586 9.72773 41.7114C9.11233 42.2323 8.5271 42.2102 7.97606 41.5872C7.71059 41.2887 7.41697 41.0122 7.11731 40.7478C5.74775 39.5397 5.68138 39.5277 4.06646 40.3912C2.39121 41.2867 1.46409 42.643 1.50029 44.5843C1.51034 45.1252 1.55459 45.7082 0.730033 45.6881C-0.102567 45.6701 0.0201111 45.0631 0.00201111 44.5382C0 44.4721 0.00201111 44.404 0.00201111 44.3378L0 44.3418Z" fill="#00F4AB"/>
<path d="M61.2302 44.3819C61.2302 44.5162 61.2281 44.6484 61.2302 44.7826C61.2442 45.3095 61.1216 45.7042 60.4659 45.6961C59.8023 45.6881 59.746 45.2714 59.7218 44.7566C59.5951 42.2223 58.4387 40.7097 56.1119 39.9424C55.591 39.7701 55.1848 39.7521 54.7624 40.1989C54.2597 40.7318 53.6583 41.1685 53.1214 41.6693C52.5985 42.1582 52.0776 42.2363 51.5225 41.7435C51.1485 41.4109 50.7684 41.0844 50.4184 40.7278C49.3646 39.6579 49.0489 39.5678 47.7175 40.2309C45.9779 41.0964 44.8517 42.4006 44.8819 44.4601C44.8839 44.6263 44.8738 44.7946 44.8617 44.9589C44.8276 45.4257 44.6184 45.6881 44.1056 45.6941C43.5425 45.7002 43.3514 45.4097 43.2991 44.8988C43.0759 42.7612 44.3047 40.3872 46.2052 39.3334C46.4968 39.1711 46.8145 39.0549 47.1021 38.8866C48.7311 37.941 50.2033 37.9991 51.432 39.5578C52.0133 40.293 52.4919 40.1828 53.1515 39.5738C54.9997 37.8689 55.5427 37.8529 57.8073 39.0269C59.9893 40.1588 61.1698 41.9077 61.2261 44.3779L61.2302 44.3819Z" fill="#00F4AB"/>
<path d="M21.7018 56.3221C21.6717 52.4956 25.0383 50.5603 27.699 50.1937C28.3184 50.1076 28.6764 50.5303 29.0545 50.9149C30.5869 52.4736 30.6855 52.4936 32.1516 50.9129C32.781 50.2358 33.4447 50.0835 34.3135 50.3119C37.7726 51.2215 39.6329 53.4873 39.5283 56.7087C39.5122 57.1996 39.5142 57.6664 38.8345 57.6944C38.1085 57.7244 37.9918 57.2557 38.0361 56.7087C38.2472 54.0743 36.3709 52.6459 34.4 51.9146C33.8992 51.7283 33.5111 51.7644 33.1269 52.147C32.6302 52.6419 32.0812 53.0866 31.5885 53.5835C30.9871 54.1885 30.424 54.2866 29.7744 53.6436C29.3239 53.1988 28.7427 52.8743 28.3385 52.3975C27.707 51.6542 27.0514 51.7544 26.2972 52.115C24.5274 52.9624 23.2504 54.1504 23.1941 56.276C23.18 56.843 23.4776 57.6984 22.4278 57.6804C21.366 57.6623 21.8225 56.7849 21.6998 56.3201L21.7018 56.3221Z" fill="#00F4AB"/>
<path d="M12.0245 22.1984C13.0039 21.988 13.754 21.8418 14.4941 21.6635C15.0311 21.5333 15.3066 21.7076 15.4192 22.2565C15.5218 22.7593 15.3669 22.9897 14.8641 23.0999C13.5569 23.3844 12.2618 23.7109 10.9586 24.0095C10.2688 24.1677 9.7881 23.9854 9.61917 23.2141C9.3356 21.9119 9.01181 20.6197 8.71216 19.3215C8.60356 18.8487 8.6478 18.4541 9.2451 18.3459C9.80419 18.2457 10.1139 18.388 10.1984 19.019C10.2869 19.6681 10.502 20.3012 10.671 20.9863C11.1496 20.9082 11.2562 20.5115 11.4453 20.2391C13.6112 17.1439 16.4268 14.7879 19.727 12.9768C19.9603 12.8486 20.2217 12.7705 20.455 12.6423C20.9618 12.3638 21.3218 12.4279 21.5752 12.9969C21.8065 13.5217 21.6174 13.7922 21.1388 14.0106C19.3006 14.848 17.6696 16.0099 16.1392 17.3081C14.5564 18.6504 13.1889 20.183 12.0265 22.1964L12.0245 22.1984Z" fill="#00F4AB"/>
<path d="M50.5009 20.9964C50.8549 20.3854 50.877 19.7082 51.0218 19.0752C51.1505 18.5142 51.3758 18.2458 51.9791 18.378C52.5563 18.5042 52.6287 18.8668 52.5121 19.3556C52.2104 20.6198 51.9067 21.8859 51.6171 23.152C51.4381 23.9334 50.9575 24.1798 50.2033 23.9995C48.9323 23.699 47.6633 23.3965 46.3902 23.114C45.9217 23.0098 45.6803 22.8255 45.803 22.2906C45.9217 21.7737 46.157 21.5253 46.712 21.6535C47.4823 21.8298 48.2545 21.9901 49.3305 22.2205C48.2545 20.6598 47.2892 19.4017 46.165 18.2718C44.4294 16.5269 42.4143 15.1605 40.2202 14.0587C39.645 13.7702 39.3835 13.5037 39.7254 12.8366C40.1256 12.0553 40.548 12.5461 40.9502 12.7445C44.3992 14.4493 47.2952 16.8153 49.5758 19.9206C49.8433 20.2852 50.0364 20.73 50.503 20.9984L50.5009 20.9964Z" fill="#00F4AB"/>
<path d="M41.8894 54.2385C41.455 54.1624 41.3223 53.8399 41.1835 53.5454C41.0226 53.2048 41.2036 52.9945 41.4892 52.8081C42.187 52.3534 42.8789 51.8866 43.5606 51.4078C45.4893 50.0595 47.1203 48.4167 48.4516 46.4774C48.6025 46.2571 48.7694 46.0507 48.9343 45.8404C49.3164 45.3555 49.6985 45.616 50.0746 45.8464C50.5231 46.1208 50.3642 46.4434 50.147 46.7779C48.1641 49.8251 45.5396 52.1951 42.4022 54.0142C42.2313 54.1123 42.0402 54.1744 41.8914 54.2406L41.8894 54.2385Z" fill="#00F4AB"/>
<path d="M20.091 53.2769C20.0387 53.6055 19.8879 53.904 19.6184 54.1163C19.3187 54.3507 19.0271 54.1564 18.7817 54.0082C16.7726 52.7881 14.8802 51.4078 13.3155 49.6448C12.5413 48.7733 11.8776 47.8037 11.1657 46.8761C10.856 46.4714 10.8117 46.1088 11.2964 45.7763C11.8072 45.4257 12.135 45.5839 12.4568 46.0507C14.3151 48.7613 16.662 50.963 19.4856 52.6579C19.729 52.8041 20.0729 52.8742 20.093 53.2729L20.091 53.2769Z" fill="#00F4AB"/>
</g>
<defs>
<clipPath id="clip0_176_1784">
<rect width="61.2322" height="56.9602" fill="white" transform="translate(0 0.736206)"/>
</clipPath>
</defs>
</svg>
