<svg width="38" height="13" viewBox="0 0 38 13" fill="none" xmlns="http://www.w3.org/2000/svg">
<g clip-path="url(#clip0_204_520)">
<path d="M7.17263 4.41792H9.27481V2.25125C9.27481 1.64615 8.96752 1.34034 8.33896 1.34034H8.1015C7.47992 1.34034 7.16564 1.64615 7.16564 2.25125V4.41792H7.17263ZM7.17263 5.8038L7.17961 8.18519C7.17961 8.79029 7.49389 9.08959 8.11547 9.08959H8.38785C9.00942 9.08959 9.3237 8.79029 9.3237 8.18519V7.01401H10.7554V8.12663C10.7554 9.65565 9.95925 10.4364 8.38086 10.4364H8.06658C6.48819 10.4364 5.69202 9.66216 5.69202 8.30881V2.48549C5.69202 0.774274 6.48819 0 8.06658 0H8.38086C9.95925 0 10.7554 0.774274 10.7554 2.3033L10.7484 5.7973H7.17263V5.8038Z" fill="white"/>
<path d="M13.1928 8.54301C13.5978 8.88134 14.0658 9.07003 14.5547 9.07003C15.0994 9.07003 15.4137 8.82279 15.4137 8.2372V2.18615C15.4137 1.60056 15.0994 1.35332 14.5547 1.35332C14.0658 1.35332 13.5978 1.54201 13.1928 1.88034V8.54301ZM11.7122 0.11708H13.1928V0.780744C13.542 0.422886 14.1426 0.00646973 15.0016 0.00646973C16.2657 0.00646973 16.8873 0.819783 16.8873 2.02999V8.41938C16.8873 9.62959 16.2657 10.4429 15.0016 10.4429C14.6622 10.4419 14.3266 10.3761 14.0155 10.2497C13.7045 10.1232 13.4244 9.93876 13.1928 9.70767V13H11.7122V0.11708Z" fill="white"/>
<path d="M21.3222 8.60157V5.2377L19.9812 5.7322C19.4365 5.9404 19.2619 6.20717 19.2619 6.79276V8.3413C19.2619 8.8358 19.5133 9.07654 19.9812 9.07654C20.4282 9.07654 20.8403 8.92689 21.3222 8.60157ZM17.7813 6.76673C17.7813 5.49796 18.2073 4.99045 19.3387 4.61308L21.3222 3.94941V2.25121C21.3222 1.64611 21.0079 1.32729 20.3863 1.32729H20.1489C19.5273 1.32729 19.213 1.64611 19.213 2.25121V3.69566H17.7743V2.30977C17.7743 0.780744 18.5705 0.00646973 20.1489 0.00646973H20.4282C22.0066 0.00646973 22.8028 0.780744 22.8028 2.30977V10.3258H21.3222V9.68165C20.9171 10.059 20.3654 10.4364 19.5133 10.4364C18.326 10.4364 17.7813 9.77274 17.7813 8.6406V6.76673Z" fill="white"/>
<path d="M28.7811 10.3258H27.3005V2.1016C27.3005 1.59409 27.0491 1.36637 26.6021 1.36637C26.1971 1.36637 25.7641 1.51602 25.2403 1.87387V10.3258H23.7596V0.117117H25.2403V0.780781C25.6733 0.383884 26.232 0 27.0491 0C27.8104 0 28.3132 0.305806 28.5856 0.832833C29.1164 0.396897 29.738 0 30.59 0C31.7354 0 32.322 0.683183 32.322 1.7958V10.3193H30.8414V2.1016C30.8414 1.59409 30.59 1.36637 30.143 1.36637C29.738 1.36637 29.3049 1.51602 28.7811 1.87387V10.3258Z" fill="white"/>
<path d="M0 4.56759V5.94697L3.7993 9.41494V7.49552L1.31299 5.23776L3.7993 2.93446V1.05408L0 4.56759Z" fill="url(#paint0_linear_204_520)"/>
<path d="M34.2007 2.93446L36.687 5.23776L34.2007 7.50202V9.41494L38 5.94697V4.56759L34.2007 1.05408V2.93446Z" fill="url(#paint1_linear_204_520)"/>
</g>
<defs>
<linearGradient id="paint0_linear_204_520" x1="0" y1="1.05408" x2="4.90013" y2="1.75862" gradientUnits="userSpaceOnUse">
<stop stop-color="#018CB8"/>
<stop offset="1" stop-color="#21C4CE"/>
</linearGradient>
<linearGradient id="paint1_linear_204_520" x1="34.2007" y1="1.05408" x2="39.1008" y2="1.75861" gradientUnits="userSpaceOnUse">
<stop stop-color="#018CB8"/>
<stop offset="1" stop-color="#21C4CE"/>
</linearGradient>
<clipPath id="clip0_204_520">
<rect width="38" height="13" fill="white"/>
</clipPath>
</defs>
</svg>
